<svg width="30" height="30" viewBox="0 0 30 30" fill="none" xmlns="http://www.w3.org/2000/svg">
<path d="M15.0059 0C6.71659 0 0 6.71395 0 15V15.0118C0 23.2861 6.71659 30 14.9941 30H15.0059C23.2834 30 30 23.2861 30 15.0118V15C30 6.71395 23.2834 0 15.0059 0ZM19.7359 9.31442H18.0213C16.6732 9.31442 16.4131 9.95272 16.4131 10.8865V12.9551H19.6295L19.2156 16.1939H16.4249V24.5035H13.0784V16.1939H10.2641V12.9551H13.0666V10.5792C13.0666 7.80142 14.7576 6.30024 17.229 6.30024C18.4115 6.30024 19.4285 6.38298 19.7241 6.43026V9.31442H19.7359Z" fill="white"/>
</svg>
