<svg width="30" height="31" viewBox="0 0 30 31" fill="none" xmlns="http://www.w3.org/2000/svg">
<g clip-path="url(#clip0)">
<path d="M15.0059 17.5719C16.4231 17.5719 17.5719 16.4231 17.5719 15.0059C17.5719 13.5887 16.4231 12.4399 15.0059 12.4399C13.5887 12.4399 12.4399 13.5887 12.4399 15.0059C12.4399 16.4231 13.5887 17.5719 15.0059 17.5719Z" fill="white"/>
<path d="M21.0012 10.4651C20.8593 10.1104 20.6937 9.85022 20.4217 9.57825C20.1497 9.30628 19.9014 9.14073 19.5349 8.99883C19.2629 8.8924 18.8608 8.76233 18.104 8.73868C17.2881 8.7032 17.0516 8.69138 14.9941 8.69138C12.9365 8.69138 12.7 8.7032 11.8841 8.73868C11.1391 8.77415 10.7252 8.8924 10.4533 8.99883C10.0985 9.14073 9.83835 9.30628 9.56638 9.57825C9.2944 9.85022 9.12885 10.0985 8.98695 10.4651C8.88053 10.7371 8.75045 11.1391 8.7268 11.8959C8.69133 12.7119 8.6795 12.9484 8.6795 15.0059C8.6795 17.0635 8.69133 17.3 8.7268 18.1159C8.76228 18.8609 8.88053 19.2747 8.98695 19.5467C9.12885 19.9015 9.2944 20.1616 9.56638 20.4336C9.83835 20.7056 10.0867 20.8711 10.4533 21.013C10.7252 21.1194 11.1273 21.2495 11.8841 21.2732C12.7 21.3086 12.9365 21.3205 14.9941 21.3205C17.0516 21.3205 17.2881 21.3086 18.104 21.2732C18.849 21.2377 19.2629 21.1194 19.5349 21.013C19.8896 20.8711 20.1497 20.7056 20.4217 20.4336C20.6937 20.1616 20.8593 19.9133 21.0012 19.5467C21.1076 19.2747 21.2376 18.8727 21.2613 18.1159C21.2968 17.3 21.3086 17.0635 21.3086 15.0059C21.3086 12.9484 21.2968 12.7119 21.2613 11.8959C21.2258 11.1391 21.1076 10.7371 21.0012 10.4651ZM15.0059 18.9555C12.8183 18.9555 11.0563 17.1817 11.0563 15.0059C11.0563 12.8301 12.8301 11.0564 15.0059 11.0564C17.1817 11.0564 18.9554 12.8301 18.9554 15.0059C18.9554 17.1817 17.1817 18.9555 15.0059 18.9555ZM19.1092 11.825C18.6007 11.825 18.1868 11.4111 18.1868 10.9026C18.1868 10.3942 18.6007 9.9803 19.1092 9.9803C19.6176 9.9803 20.0315 10.3942 20.0315 10.9026C20.0315 11.4111 19.6176 11.825 19.1092 11.825Z" fill="white"/>
<path d="M15.0059 0C6.71659 0 0 6.71659 0 15.0059V15.0177C0 23.2952 6.71659 30.0118 14.9941 30.0118H15.0059C23.2834 30.0118 30 23.2952 30 15.0177V15.0059C30 6.71659 23.2834 0 15.0059 0ZM22.6449 18.175C22.6094 18.9909 22.4793 19.5585 22.2901 20.0434C22.0891 20.5518 21.8289 20.9775 21.4032 21.4032C20.9775 21.8289 20.5518 22.0891 20.0434 22.2901C19.5585 22.4793 18.9909 22.6094 18.175 22.6449C17.3591 22.6803 17.0871 22.6922 15.0059 22.6922C12.9247 22.6922 12.6527 22.6803 11.8368 22.6449C11.0209 22.6094 10.4533 22.4793 9.96847 22.2901C9.45999 22.0891 9.03429 21.8289 8.60859 21.4032C8.18289 20.9775 7.92274 20.5518 7.72172 20.0434C7.53252 19.5585 7.40244 18.9909 7.36697 18.175C7.33149 17.3591 7.31967 17.0871 7.31967 15.0059C7.31967 12.9129 7.33149 12.6527 7.36697 11.8368C7.40244 11.0209 7.53252 10.4533 7.72172 9.96847C7.92274 9.45999 8.18289 9.03429 8.60859 8.60859C9.03429 8.18289 9.45999 7.92274 9.96847 7.72172C10.4533 7.53252 11.0209 7.40244 11.8368 7.36697C12.6527 7.33149 12.9247 7.31967 15.0059 7.31967C17.0871 7.31967 17.3591 7.33149 18.175 7.36697C18.9909 7.40244 19.5585 7.53252 20.0434 7.72172C20.5518 7.92274 20.9775 8.18289 21.4032 8.60859C21.8289 9.03429 22.0891 9.45999 22.2901 9.96847C22.4793 10.4533 22.6094 11.0209 22.6449 11.8368C22.6803 12.6527 22.6922 12.9247 22.6922 15.0059C22.6922 17.0871 22.6922 17.3591 22.6449 18.175Z" fill="white"/>
</g>
<defs>
<clipPath id="clip0">
<rect width="30" height="30.0118" fill="white"/>
</clipPath>
</defs>
</svg>
