<svg width="28" height="33" viewBox="0 0 28 33" fill="none" xmlns="http://www.w3.org/2000/svg">
<path d="M26.5 13.7316L4.49999 0.731628C3.91666 0.356628 3.27082 0.231628 2.56249 0.356628C1.85416 0.439962 1.24999 0.752462 0.74999 1.29413C0.24999 1.79413 -9.53674e-06 2.4608 -9.53674e-06 3.29413V29.2941C-9.53674e-06 30.0441 0.229157 30.69 0.68749 31.2316C1.18749 31.7733 1.79166 32.1066 2.49999 32.2316C3.20832 32.3566 3.87499 32.2316 4.49999 31.8566L26.5 18.8566C27.1667 18.4816 27.6042 17.9608 27.8125 17.2941C28.0625 16.6275 28.0625 15.9608 27.8125 15.2941C27.6042 14.6275 27.1667 14.1066 26.5 13.7316ZM2.99999 28.6066V3.91913C2.99999 3.79413 3.06249 3.7108 3.18749 3.66913C3.31249 3.5858 3.43749 3.56496 3.56249 3.60663L24.4375 15.9816C24.5625 16.065 24.625 16.1691 24.625 16.2941C24.625 16.4191 24.5625 16.5233 24.4375 16.6066L3.56249 28.9816C3.43749 29.0233 3.31249 29.0025 3.18749 28.9191C3.06249 28.8775 2.99999 28.7733 2.99999 28.6066Z" fill="white"/>
</svg>
