<svg width="30" height="30" viewBox="0 0 30 30" fill="none" xmlns="http://www.w3.org/2000/svg">
<path d="M15.0059 0C6.71659 0 0 6.71395 0 15V15.0118C0 23.2861 6.71659 30 14.9941 30H15.0059C23.2834 30 30 23.2861 30 15.0118V15C30 6.71395 23.2834 0 15.0059 0ZM23.2952 20.8983L20.7529 20.9338C20.7529 20.9338 20.2089 21.0402 19.4876 20.5437C18.5416 19.8936 17.6429 18.1915 16.9452 18.4161C16.2357 18.6407 16.2594 20.1655 16.2594 20.1655C16.2594 20.1655 16.2594 20.4965 16.1056 20.6619C15.9283 20.8511 15.5853 20.8865 15.5853 20.8865H14.4501C14.4501 20.8865 11.9432 21.0402 9.73197 18.7352C7.31967 16.2293 5.19117 11.253 5.19117 11.253C5.19117 11.253 5.07292 10.922 5.203 10.7683C5.35672 10.591 5.75877 10.5792 5.75877 10.5792L8.47852 10.5674C8.47852 10.5674 8.73867 10.6147 8.91604 10.7447C9.06977 10.8511 9.15254 11.0638 9.15254 11.0638C9.15254 11.0638 9.59007 12.1749 10.1695 13.1797C11.3047 15.1418 11.8368 15.5674 12.2152 15.3664C12.7828 15.0591 12.6054 12.5887 12.6054 12.5887C12.6054 12.5887 12.6173 11.6903 12.3216 11.3002C12.097 10.9929 11.6713 10.8983 11.4821 10.8747C11.3283 10.8511 11.5767 10.4965 11.9078 10.3428C12.3926 10.1064 13.2558 10.0946 14.2846 10.0946C15.0769 10.1064 15.3134 10.1537 15.6208 10.2246C16.555 10.4492 16.2357 11.3239 16.2357 13.4161C16.2357 14.0898 16.1175 15.0355 16.6023 15.3428C16.8151 15.4728 17.3236 15.3664 18.5889 13.2033C19.192 12.1749 19.6413 10.9693 19.6413 10.9693C19.6413 10.9693 19.7359 10.7565 19.8896 10.6619C20.0434 10.5674 20.2562 10.591 20.2562 10.591L23.1179 10.5674C23.1179 10.5674 23.9811 10.461 24.1112 10.8511C24.2531 11.253 23.7919 12.2104 22.6212 13.7707C20.7056 16.3239 20.4927 16.0875 22.0773 17.565C23.6027 18.9716 23.9101 19.669 23.9693 19.7518C24.6196 20.8156 23.2952 20.8983 23.2952 20.8983Z" fill="white"/>
</svg>
