<svg width="30" height="30" viewBox="0 0 30 30" fill="none" xmlns="http://www.w3.org/2000/svg">
<path d="M13.3977 17.3759L17.773 15.0946L13.3977 12.8014V17.3759Z" fill="white"/>
<path d="M15.0059 0C6.71659 0 0 6.71395 0 15V15.0118C0 23.2861 6.71659 30 14.9941 30H15.0059C23.2834 30 30 23.2861 30 15.0118V15C30 6.71395 23.2834 0 15.0059 0ZM23.1179 19.0307C22.9168 19.9054 22.1955 20.5556 21.3323 20.6501C19.2866 20.8747 17.2054 20.8747 15.136 20.8747C13.0666 20.8747 10.9972 20.8747 8.93969 20.6501C8.07647 20.5556 7.35514 19.9054 7.15412 19.0307C6.87032 17.7778 6.87032 16.4066 6.87032 15.1182C6.87032 13.8298 6.87032 12.4586 7.16594 11.2057C7.36697 10.331 8.08829 9.68085 8.95152 9.58629C10.9972 9.3617 13.0784 9.3617 15.1478 9.3617C17.2172 9.3617 19.2866 9.3617 21.3441 9.58629C22.2073 9.68085 22.9287 10.331 23.1297 11.2057C23.4135 12.4586 23.4135 13.8298 23.4135 15.1182C23.4017 16.4184 23.4017 17.7896 23.1179 19.0307Z" fill="white"/>
</svg>
