<?xml version="1.0" encoding="utf-8"?><svg viewBox="0 0 135 43" xmlns="http://www.w3.org/2000/svg" xmlns:xlink="http://www.w3.org/1999/xlink"><style>:root>svg{display:none}:root>svg:target{display:block}</style><svg fill="none" viewBox="0 0 30 30" id="fb" xmlns="http://www.w3.org/2000/svg"><path d="M15.006 0C6.716 0 0 6.714 0 15v.012C0 23.286 6.717 30 14.994 30h.012C23.283 30 30 23.286 30 15.012V15c0-8.286-6.717-15-14.994-15zm4.73 9.314H18.02c-1.348 0-1.608.639-1.608 1.572v2.07h3.216l-.413 3.238h-2.791v8.31h-3.347v-8.31h-2.814v-3.239h2.803V10.58c0-2.778 1.69-4.279 4.162-4.279 1.183 0 2.2.083 2.495.13v2.884h.012z" fill="#fff"/></svg><svg fill="none" viewBox="0 0 30 31" id="in" xmlns="http://www.w3.org/2000/svg"><g clip-path="url(#bclip0)" fill="#fff"><path d="M15.006 17.572a2.566 2.566 0 100-5.132 2.566 2.566 0 000 5.132z"/><path d="M21.001 10.465a2.456 2.456 0 00-.58-.887 2.36 2.36 0 00-.886-.58c-.272-.106-.674-.236-1.431-.26-.816-.035-1.052-.047-3.11-.047-2.057 0-2.294.012-3.11.048-.745.035-1.159.153-1.43.26a2.455 2.455 0 00-.888.58c-.272.271-.437.52-.58.886-.105.272-.236.674-.26 1.43-.035.817-.046 1.053-.046 3.11 0 2.059.011 2.295.047 3.11.035.746.154 1.16.26 1.432.142.354.307.615.58.887.271.272.52.437.886.579.272.106.674.236 1.431.26.816.036 1.053.047 3.11.047 2.058 0 2.294-.011 3.11-.047.745-.035 1.159-.154 1.43-.26.356-.142.616-.307.888-.58.272-.271.437-.52.58-.886.106-.272.236-.674.26-1.431.035-.816.047-1.052.047-3.11s-.012-2.294-.048-3.11c-.035-.757-.153-1.159-.26-1.43zm-5.995 8.49a3.95 3.95 0 11-.001-7.898 3.95 3.95 0 010 7.899zm4.103-7.13a.924.924 0 010-1.845.924.924 0 010 1.845z"/><path d="M15.006 0C6.716 0 0 6.717 0 15.006v.012c0 8.277 6.717 14.994 14.994 14.994h.012C23.283 30.012 30 23.295 30 15.018v-.012C30 6.716 23.283 0 15.006 0zm7.639 18.175c-.036.816-.166 1.383-.355 1.868a3.806 3.806 0 01-.887 1.36 3.806 3.806 0 01-1.36.887c-.485.19-1.052.32-1.868.355-.816.035-1.088.047-3.17.047-2.08 0-2.352-.012-3.168-.047-.816-.036-1.384-.166-1.869-.355a3.805 3.805 0 01-1.36-.887 3.806 3.806 0 01-.886-1.36c-.19-.485-.32-1.052-.355-1.868-.036-.816-.047-1.088-.047-3.17 0-2.092.011-2.352.047-3.168.035-.816.166-1.384.355-1.869.2-.508.46-.934.887-1.36a3.806 3.806 0 011.36-.886c.484-.19 1.052-.32 1.868-.355.816-.036 1.088-.047 3.169-.047s2.353.011 3.169.047c.816.035 1.383.166 1.868.355.509.2.934.46 1.36.887.426.425.686.851.887 1.36.19.484.32 1.052.355 1.868.035.816.047 1.088.047 3.169s0 2.353-.047 3.169z"/></g><defs><clipPath id="bclip0"><path fill="#fff" d="M0 0h30v30.012H0z"/></clipPath></defs></svg><svg fill="none" viewBox="0 0 135 43" id="logo" xmlns="http://www.w3.org/2000/svg"><path fill-rule="evenodd" clip-rule="evenodd" d="M42.033 8.251h.933v-2.43h1.498c1.215 0 2.063-.848 2.063-2.091 0-1.243-.848-2.063-2.063-2.063h-2.43v6.584zm.933-3.221V2.487h1.356c.763 0 1.272.48 1.272 1.271 0 .791-.509 1.3-1.272 1.3l-1.356-.028zm4.323-.113c0 1.95 1.498 3.447 3.391 3.447 1.894 0 3.391-1.526 3.391-3.447 0-1.893-1.47-3.363-3.39-3.363-1.922 0-3.42 1.47-3.392 3.363zm.933 0c0-1.441 1.074-2.515 2.43-2.515s2.43 1.102 2.43 2.515c0 1.47-1.074 2.6-2.43 2.6-1.328 0-2.43-1.13-2.43-2.6zm6.753 0c0 1.921 1.328 3.447 3.391 3.447 1.159 0 1.978-.48 2.543-1.045l-.508-.679a2.94 2.94 0 01-2.035.848c-1.526 0-2.458-1.215-2.458-2.6 0-1.384.904-2.514 2.43-2.514.678 0 1.413.282 1.893.706l.48-.678c-.621-.622-1.554-.876-2.401-.876-1.95.028-3.335 1.498-3.335 3.39zm6.528 0c0 1.921 1.328 3.447 3.39 3.447 1.16 0 1.979-.48 2.544-1.045l-.509-.679a2.94 2.94 0 01-2.034.848c-1.526 0-2.459-1.215-2.459-2.6 0-1.384.904-2.514 2.43-2.514.679 0 1.413.282 1.894.706l.48-.678c-.622-.622-1.554-.876-2.402-.876-1.95.028-3.334 1.498-3.334 3.39zm7.092 3.334h.905l2.938-4.267c.226-.367.537-.96.537-.96h.029s-.057.593-.057.96v4.267h.904V1.667h-.904l-2.882 4.267c-.226.367-.565.96-.565.96h-.029s.057-.593.057-.96V1.667h-.933v6.584zm9.72-6.895c.736 0 1.386-.424 1.386-1.186V.028h-.707v.113c0 .424-.339.622-.678.622-.34 0-.65-.198-.65-.622V0h-.735v.141c0 .791.65 1.215 1.385 1.215zm-2.684 6.895h.905l2.938-4.267c.227-.367.566-.96.566-.96h.028s-.057.593-.057.96v4.267h.904V1.667h-.904l-2.938 4.267c-.226.367-.566.96-.566.96h-.028s.057-.593.057-.96V1.667h-.933v6.584h.028zm6.613-3.334c0 1.921 1.328 3.447 3.39 3.447 1.16 0 1.978-.48 2.544-1.045l-.48-.679a2.94 2.94 0 01-2.035.848c-1.526 0-2.459-1.215-2.459-2.6 0-1.384.905-2.514 2.43-2.514.679 0 1.413.282 1.922.706l.48-.678c-.621-.622-1.554-.876-2.401-.876-1.979.028-3.391 1.498-3.391 3.39zm7.12 3.334h.933V5.228h.989l1.752 3.023h1.045L92.05 4.804v-.029L93.97 1.64h-1.017l-1.667 2.77h-.989v-2.77h-.932V8.25zm5.737 0h.904l2.939-4.267c.226-.367.565-.96.565-.96h.028s-.056.593-.056.96v4.267h.904V1.667h-.904l-2.94 4.267c-.225.367-.564.96-.564.96h-.029s.057-.593.057-.96V1.667h-.933v6.584h.029zm9.692-6.895c.735 0 1.385-.424 1.385-1.186V.028h-.707v.113c0 .424-.339.622-.65.622-.339 0-.65-.198-.65-.622V0h-.763v.141c0 .791.679 1.215 1.385 1.215zm-2.656 6.895h.904l2.939-4.267c.226-.367.537-.96.537-.96h.028s-.057.593-.057.96v4.267h.905V1.667h-.905l-2.938 4.267c-.226.367-.566.96-.566.96h-.028s.057-.593.057-.96V1.667h-.933v6.584h.057zM42.033 19.47h.933v-5.793h2.713v-.79h-3.646v6.583zm3.957-3.334c0 1.95 1.497 3.447 3.39 3.447 1.922 0 3.391-1.526 3.391-3.447 0-1.893-1.47-3.363-3.39-3.363-1.922 0-3.42 1.47-3.391 3.363zm.932 0c0-1.441 1.074-2.515 2.43-2.515 1.357 0 2.43 1.102 2.43 2.515 0 1.47-1.073 2.6-2.43 2.6-1.328 0-2.43-1.13-2.43-2.6zm6.754 0c0 1.95 1.328 3.447 3.39 3.447 1.159 0 1.978-.48 2.544-1.045l-.48-.65a2.94 2.94 0 01-2.035.848c-1.526 0-2.459-1.215-2.459-2.6s.904-2.515 2.43-2.515c.679 0 1.413.283 1.894.706l.48-.706c-.622-.593-1.554-.876-2.402-.876-1.978.028-3.362 1.498-3.362 3.39zm6.923 3.023c.367.255.763.424 1.215.424.82 0 1.243-.65 1.497-1.328l2.091-5.397h-.96l-1.215 3.334c-.142.396-.283.848-.283.848h-.028s-.17-.452-.368-.876l-1.61-3.306H59.92l2.6 5.171c-.17.452-.367.735-.735.735-.31 0-.593-.198-.763-.34l-.423.735zm6.131-.48c.763-1.187.933-2.939.933-4.38v-.621h2.063v5.001H66.73zm-1.61 0v2.12h.847v-1.3h4.606v1.3h.82v-2.12h-.735v-5.793h-3.871v1.357c0 1.44-.113 3.165-1.046 4.436h-.621zm6.81.791h.932l.65-1.893H76l.65 1.893h.96l-2.373-6.584h-.99L71.93 19.47zm1.836-2.656l.735-2.091c.113-.34.254-.932.254-.932h.029s.141.593.254.932l.735 2.091h-2.007zm4.86 2.656h.933v-2.43h1.498c1.215 0 2.063-.848 2.063-2.09 0-1.244-.848-2.064-2.063-2.064h-2.43v6.584zm.933-3.221v-2.543h1.356c.763 0 1.272.48 1.272 1.271 0 .792-.508 1.3-1.272 1.3l-1.356-.028zm4.324-.113c0 1.95 1.328 3.447 3.39 3.447 1.159 0 1.978-.48 2.544-1.045l-.51-.65a2.94 2.94 0 01-2.034.848c-1.525 0-2.458-1.215-2.458-2.6s.904-2.515 2.43-2.515c.678 0 1.413.283 1.893.706l.48-.706c-.62-.593-1.553-.876-2.401-.876-1.95.028-3.334 1.498-3.334 3.39zm8.646 3.334h.904v-5.793h2.261v-.79H90.24v.79h2.261v5.793h.028zm4.21 0h2.374c1.159 0 2.12-.621 2.12-1.865 0-.734-.396-1.384-1.103-1.61v-.029c.509-.254.82-.763.82-1.412 0-1.074-.791-1.696-1.922-1.696h-2.317v6.612h.029zm.933-3.815v-1.977h1.385c.621 0 .989.395.989.96s-.368.99-.961.99l-1.413.027zm0 3.024v-2.26h1.498c.678 0 1.13.452 1.13 1.13 0 .678-.424 1.13-1.13 1.13h-1.498zm4.889.791h4.012v-.791h-3.08v-2.12h2.374v-.79h-2.374v-2.063h2.911v-.791h-3.843v6.555zm5.284 0h.932v-2.882h3.419v2.882h.905v-6.584h-.905v2.883h-3.419v-2.91h-.932v6.611zm7.008 0h.932v-2.882h3.419v2.882h.904v-6.584h-.904v2.883h-3.419v-2.91h-.932v6.611zm12.235 0h.904v-6.584h-.904v6.584zm-5.228 0h2.317c1.159 0 1.95-.82 1.95-2.034 0-1.328-.848-2.063-2.006-2.063h-1.356v-2.487h-.933v6.584h.028zm.933-.791v-2.515h1.243c.735 0 1.187.509 1.187 1.272s-.452 1.243-1.187 1.243h-1.243zm9.636-6.104c.734 0 1.384-.423 1.384-1.186v-.142h-.735v.113c0 .424-.339.622-.678.622s-.65-.198-.65-.622v-.14h-.734v.14c.028.792.678 1.216 1.413 1.216zm-2.685 6.895h.904l2.939-4.267c.226-.367.537-.96.537-.96h.028s-.056.593-.056.96v4.267H135v-6.584h-.904l-2.911 4.267c-.226.367-.565.96-.565.96h-.028s.056-.592.056-.96v-4.295h-.932v6.612h.028zm-88.106 7.884c0 1.921 1.328 3.447 3.39 3.447 1.16 0 1.979-.48 2.544-1.045l-.509-.65a2.94 2.94 0 01-2.034.848c-1.526 0-2.459-1.215-2.459-2.6s.905-2.515 2.43-2.515c.679 0 1.413.283 1.894.707l.48-.707c-.622-.593-1.554-.876-2.402-.876-1.95.028-3.334 1.47-3.334 3.391zm6.527 0c0 1.95 1.498 3.447 3.391 3.447 1.894 0 3.391-1.526 3.391-3.447 0-1.893-1.47-3.363-3.39-3.363-1.922 0-3.392 1.47-3.392 3.363zm.933 0c0-1.441 1.074-2.515 2.43-2.515s2.43 1.102 2.43 2.515c0 1.47-1.074 2.6-2.43 2.6-1.328 0-2.43-1.13-2.43-2.6zm7.149 3.334h5.002v1.3h.819v-2.09h-.763v-5.794h-.932v5.793H57.15v-5.793h-.932v6.584h.028zm7.093 0h.904l2.939-4.267c.226-.367.565-.96.565-.96h.028s-.057.593-.057.96v4.267h.905v-6.584h-.905l-2.938 4.267c-.226.368-.566.961-.566.961h-.028s.057-.593.057-.96v-4.296h-.933v6.612h.029zm6.3 0h.933l.65-1.893h2.487l.65 1.893h.96l-2.373-6.584h-.989l-2.317 6.584zm1.838-2.656l.734-2.09c.113-.34.255-.933.255-.933h.028s.141.593.254.932l.735 2.091h-2.006zm4.125 1.893v.848c1.809-.113 2.374-1.921 2.374-5.114v-.763h2.034v5.792h.933v-6.584H77.1v1.555c0 2.684-.396 4.125-1.498 4.266zm7.093.763h2.373c1.159 0 1.978-.82 1.978-2.034 0-1.328-.847-2.063-2.006-2.063h-1.413v-2.487h-.932v6.584zm.904-.79V27.38h1.272c.734 0 1.186.509 1.186 1.272s-.452 1.243-1.186 1.243H83.6zm4.578.79h.932v-2.882h3.42v2.882h.903v-6.584h-.904v2.91H89.11v-2.91h-.932v6.584zm12.235 0h.904v-6.584h-.904v6.584zm-5.2 0h2.318c1.158 0 1.95-.82 1.95-2.034 0-1.328-.848-2.063-2.007-2.063h-1.356v-2.487h-.904v6.584zm.905-.79V27.38h1.243c.735 0 1.187.509 1.187 1.272s-.452 1.243-1.187 1.243h-1.243zm9.636-6.104c.734 0 1.384-.424 1.384-1.187v-.142h-.706v.114c0 .423-.339.621-.678.621s-.65-.198-.65-.621v-.142h-.735v.142c0 .79.678 1.215 1.385 1.215zm-2.657 6.894h.905l2.938-4.267c.227-.367.537-.96.537-.96h.029s-.057.593-.057.96v4.267h.904v-6.584h-.904l-2.91 4.267c-.226.368-.566.961-.566.961h-.028s.057-.593.057-.96v-4.296h-.933v6.612h.028zm-60.78 10.908c.367.254.762.424 1.214.424.82 0 1.244-.65 1.498-1.328l2.09-5.398h-.96l-1.215 3.335c-.141.395-.283.847-.283.847h-.028s-.17-.452-.367-.876l-1.61-3.306h-1.018l2.6 5.171c-.17.453-.368.735-.735.735-.31 0-.593-.198-.763-.339l-.424.735zm5.764.31h.932v-2.882h3.42v2.883h.903v-6.584h-.904v2.91h-3.419v-2.91h-.932v6.584zm7.007 0h.905l2.938-4.266c.226-.368.537-.961.537-.961h.028s-.056.593-.056.96v4.268h.904v-6.584h-.904l-2.939 4.266c-.226.368-.565.961-.565.961h-.028s.056-.593.056-.96v-4.296h-.876v6.613zm7.036 0h2.374c1.159 0 2.12-.621 2.12-1.864 0-.735-.396-1.385-1.103-1.611v-.028c.509-.255.82-.763.82-1.413 0-1.074-.791-1.696-1.922-1.696h-2.317v6.613h.029zm.933-3.814v-1.978h1.385c.621 0 .989.395.989.96 0 .566-.368.99-.961.99l-1.413.028zm0 3.023v-2.26h1.498c.678 0 1.13.452 1.13 1.13 0 .678-.424 1.13-1.13 1.13h-1.498zm4.888.792h4.013v-.792h-3.08v-2.119h2.374v-.791h-2.374v-2.091h2.91v-.791h-3.843v6.584zm5.285 0h.932v-2.43h1.498c1.215 0 2.063-.848 2.063-2.092 0-1.243-.848-2.062-2.063-2.062h-2.43v6.584zm.932-3.25v-2.543h1.356c.763 0 1.272.48 1.272 1.271 0 .792-.509 1.3-1.272 1.3l-1.356-.028zm4.323-.085c0 1.922 1.329 3.448 3.391 3.448 1.159 0 1.978-.48 2.543-1.046l-.508-.65a2.94 2.94 0 01-2.035.848c-1.526 0-2.458-1.215-2.458-2.6 0-1.384.904-2.515 2.43-2.515.678 0 1.413.283 1.893.707l.48-.707c-.621-.621-1.553-.876-2.401-.876-1.95.029-3.335 1.47-3.335 3.391zm7.093 3.335h.904l2.939-4.267c.226-.368.565-.961.565-.961h.028s-.056.593-.056.96v4.268h.904v-6.584h-.904l-2.939 4.266c-.226.368-.565.961-.565.961h-.028s.056-.593.056-.96v-4.296h-.932v6.613h.028zm8.562 0h.904v-5.793h2.26v-.791h-5.453v.79h2.26v5.794h.029zm4.21 0h4.013v-.792h-3.08v-2.119h2.373v-.791h-2.373v-2.091h2.91v-.791H98.35v6.584zm6.81 0h.905v-5.793h2.26v-.791h-5.454v.79h2.261v5.794h.028zM3.773 19.413c-.48.734-.904 1.497-1.158 2.317-.255.848-.368 1.723-.424 2.6-.057 1.271 0 2.57.056 3.843.029.565.029 1.158.029 1.751 0 1.046.028 2.12.028 3.165 0 1.046 0 2.091.028 3.137v5.99H.156v-5.962c0-1.045-.028-2.091-.028-3.136 0-1.046 0-2.12-.028-3.165 0-.566 0-1.13-.028-1.668-.085-2.317-.227-4.973.48-7.205.339-1.046.82-1.978 1.413-2.882.65-.961 1.384-1.668 2.176-2.515l-.029-.028c-.847-1.272-1.356-2.77-1.356-4.409a7.887 7.887 0 017.884-7.883c1.243 0 2.402.282 3.419.79a8.533 8.533 0 012.458-2.57c.029-.029.057-.029.085-.057.028-.028.056-.028.085-.057A7.807 7.807 0 0120.812.311a7.887 7.887 0 017.884 7.884 7.798 7.798 0 01-2.74 5.962l.169.17c1.243 1.214 2.345 2.232 3.306 3.701.593.904 1.102 1.837 1.413 2.882.706 2.233.565 4.889.48 7.206-.028.565-.028 1.13-.028 1.667 0 1.046-.028 2.12-.028 3.165s0 2.091-.029 3.136c0 .594 0 5.228-.028 5.822l-.028.339h-2.176l.028-.453c.029-.565.029-5.17.029-5.736 0-1.045.028-2.09.028-3.136 0-1.046 0-2.12.028-3.165 0-.565 0-1.159.028-1.752.057-1.272.113-2.572.057-3.843-.028-.876-.141-1.752-.424-2.6-.254-.848-.678-1.582-1.159-2.317-.876-1.328-1.893-2.26-3.023-3.334l-.509-.509a7.933 7.933 0 01-3.278.707 7.612 7.612 0 01-3.419-.792c-.31.509-.678 1.018-1.102 1.441a6.278 6.278 0 014.154 5.906 6.245 6.245 0 01-1.978 4.578c.593.622 1.159 1.272 1.667 2.063.142.197.283.424.396.65.028.028.028.056.056.084.396.679.735 1.385.961 2.148.028.085.057.141.057.226.254.876.31 1.61.339 2.515v.791l-.113 6.5h-2.204c0-2.12.113-4.465.056-6.556-.028-1.526-.226-3.222-1.384-5.087 0-.028-.029-.028-.029-.056-.508-.791-1.102-1.441-1.723-2.063-.735.31-1.555.48-2.43.48-.735 0-1.442-.113-2.092-.367-.226.226-.423.452-.65.706a8.532 8.532 0 00-1.186 1.668c-.933 1.723-1.102 3.277-1.159 4.719-.056 2.09.057 4.436.057 6.555H6.882l-.113-6.499c-.029-1.074 0-1.865.226-2.797.254-1.074.65-2.007 1.186-2.967.142-.226.283-.48.452-.707a13.06 13.06 0 011.413-1.78 6.317 6.317 0 01-2.232-4.804 6.4 6.4 0 011.187-3.673 7.812 7.812 0 01-3.476-1.667c-.593.65-1.243 1.3-1.752 2.09zm16.39-5.595c.226.028.452.028.65.028 1.158 0 2.26-.367 3.164-.96 1.498-1.018 2.515-2.742 2.515-4.691a5.68 5.68 0 00-5.68-5.68c-1.102 0-2.147.31-3.023.876-.028 0-.028.028-.057.028a5.526 5.526 0 00-1.836 1.95 7.813 7.813 0 012.6 5.85 7.81 7.81 0 01-.255 2.005 5.64 5.64 0 001.921.594zM10.64 5.567a5.68 5.68 0 015.68 5.68 5.686 5.686 0 01-3.674 5.312 5.693 5.693 0 00-.65.197c-.424.113-.876.17-1.356.17a5.68 5.68 0 01-5.68-5.68 5.662 5.662 0 015.68-5.68zm3.532 12.913a4.16 4.16 0 00-4.154 4.154 4.16 4.16 0 004.154 4.154 4.16 4.16 0 004.154-4.154c-.029-2.289-1.865-4.154-4.154-4.154z" fill="#fff"/></svg><svg fill="none" viewBox="0 0 47 9" id="long-arrow" xmlns="http://www.w3.org/2000/svg"><path d="M46.354 4.681a.5.5 0 000-.707L43.172.792a.5.5 0 10-.707.707l2.828 2.829-2.828 2.828a.5.5 0 10.707.707l3.182-3.182zM0 4.828h46v-1H0v1z" fill="#fff"/></svg><svg fill="none" viewBox="0 0 28 33" id="play" xmlns="http://www.w3.org/2000/svg"><path d="M26.5 13.732l-22-13C3.917.357 3.27.232 2.562.357a2.855 2.855 0 00-1.812.937c-.5.5-.75 1.167-.75 2v26c0 .75.23 1.396.687 1.938.5.541 1.105.875 1.813 1s1.375 0 2-.375l22-13c.667-.375 1.104-.896 1.313-1.563a2.76 2.76 0 000-2c-.209-.667-.646-1.187-1.313-1.562zM3 28.607V3.919c0-.125.062-.208.187-.25a.413.413 0 01.375-.062l20.875 12.375c.125.083.188.187.188.312s-.063.23-.188.313L3.563 28.982a.413.413 0 01-.375-.063c-.125-.041-.187-.146-.187-.312z" fill="#fff"/></svg><svg fill="none" viewBox="0 0 26 26" id="search" xmlns="http://www.w3.org/2000/svg"><g stroke="#fff" stroke-width="3" stroke-linecap="round" stroke-linejoin="round"><path d="M18.629 10.065a8.564 8.564 0 11-17.129 0 8.564 8.564 0 0117.129 0zM16.258 16.258L24 24"/></g></svg><svg fill="none" viewBox="0 0 26 26" id="search-dark" xmlns="http://www.w3.org/2000/svg"><g stroke="#001E42" stroke-width="3" stroke-linecap="round" stroke-linejoin="round"><path d="M18.629 10.065a8.564 8.564 0 11-17.129 0 8.564 8.564 0 0117.129 0zM16.258 16.258L24 24"/></g></svg><svg fill="none" viewBox="0 0 30 30" id="vk" xmlns="http://www.w3.org/2000/svg"><path d="M15.006 0C6.716 0 0 6.714 0 15v.012C0 23.286 6.717 30 14.994 30h.012C23.283 30 30 23.286 30 15.012V15c0-8.286-6.717-15-14.994-15zm8.29 20.898l-2.543.036s-.544.106-1.265-.39c-.946-.65-1.845-2.352-2.543-2.128-.71.225-.686 1.75-.686 1.75s0 .33-.153.496c-.178.19-.52.225-.52.225H14.45s-2.507.153-4.718-2.152c-2.412-2.506-4.54-7.482-4.54-7.482s-.12-.331.011-.485c.154-.177.556-.189.556-.189l2.72-.012s.26.048.437.178c.154.106.237.319.237.319s.437 1.11 1.016 2.116c1.136 1.962 1.668 2.387 2.046 2.186.568-.307.39-2.777.39-2.777s.012-.899-.283-1.289c-.225-.307-.65-.402-.84-.425-.154-.024.095-.379.426-.532.485-.237 1.348-.248 2.377-.248.792.011 1.028.059 1.336.13.934.224.615 1.099.615 3.191 0 .674-.119 1.62.366 1.927.213.13.722.023 1.987-2.14.603-1.028 1.052-2.234 1.052-2.234s.095-.212.249-.307c.153-.095.366-.071.366-.071l2.862-.024s.863-.106.993.284c.142.402-.32 1.36-1.49 2.92-1.915 2.553-2.128 2.316-.544 3.794 1.526 1.407 1.833 2.104 1.892 2.187.65 1.064-.674 1.146-.674 1.146z" fill="#fff"/></svg><svg fill="none" viewBox="0 0 30 30" id="yt" xmlns="http://www.w3.org/2000/svg"><path d="M13.398 17.376l4.375-2.281-4.375-2.294v4.575z" fill="#fff"/><path d="M15.006 0C6.716 0 0 6.714 0 15v.012C0 23.286 6.717 30 14.994 30h.012C23.283 30 30 23.286 30 15.012V15c0-8.286-6.717-15-14.994-15zm8.112 19.03c-.201.875-.922 1.526-1.786 1.62-2.045.225-4.127.225-6.196.225-2.07 0-4.139 0-6.196-.225-.864-.094-1.585-.745-1.786-1.62-.284-1.252-.284-2.623-.284-3.912 0-1.288 0-2.66.296-3.912.201-.875.922-1.525 1.786-1.62 2.045-.224 4.126-.224 6.196-.224 2.07 0 4.139 0 6.196.224.863.095 1.585.745 1.786 1.62.284 1.253.284 2.624.284 3.912-.012 1.3-.012 2.672-.296 3.913z" fill="#fff"/></svg></svg>